<svg xmlns="http://www.w3.org/2000/svg" width="50.168" height="14.275" viewBox="0 0 50.168 14.275">
  <g id="Group_12" data-name="Group 12" transform="translate(-8896.338 428.487)">
    <path id="Snikpic" d="M4.143,11.351a4.675,4.675,0,0,1-2.627-.719A3.817,3.817,0,0,1,0,8.662l1.251-.719A2.753,2.753,0,0,0,4.175,9.928a2.8,2.8,0,0,0,1.72-.453A1.5,1.5,0,0,0,6.488,8.24a1.31,1.31,0,0,0-.594-1.173,8.54,8.54,0,0,0-1.986-.829q-.688-.219-1.048-.344-.36-.141-.907-.407a3.089,3.089,0,0,1-.8-.563,3.126,3.126,0,0,1-.485-.766A2.649,2.649,0,0,1,.469,3.1a2.769,2.769,0,0,1,1-2.251A3.655,3.655,0,0,1,3.909,0,3.872,3.872,0,0,1,6.16.657,4.069,4.069,0,0,1,7.614,2.392l-1.22.7A2.5,2.5,0,0,0,3.909,1.407a2.234,2.234,0,0,0-1.438.438,1.441,1.441,0,0,0-.547,1.188,1.269,1.269,0,0,0,.516,1.094,6.755,6.755,0,0,0,1.782.782q.453.141.641.2t.578.219q.407.156.594.25t.5.266a2.028,2.028,0,0,1,.485.328q.156.156.36.391a1.366,1.366,0,0,1,.313.453,3.138,3.138,0,0,1,.156.547,2.512,2.512,0,0,1,.078.641,2.822,2.822,0,0,1-1.048,2.3A4.226,4.226,0,0,1,4.143,11.351Z" transform="translate(8896.338 -428.487)" fill="#f0998d"/>
    <path id="Snikpic-2" data-name="Snikpic" d="M13.4,3.127a2.893,2.893,0,0,1,2.2.876,3.238,3.238,0,0,1,.829,2.345v4.8h-1.36V6.426a1.988,1.988,0,0,0-.516-1.47,1.891,1.891,0,0,0-1.423-.532,2.19,2.19,0,0,0-1.642.641A2.643,2.643,0,0,0,10.868,7v4.143H9.508V3.33h1.36V4.456A2.779,2.779,0,0,1,13.4,3.127Z" transform="translate(8896.338 -428.487)" fill="#f0998d"/>
    <path id="Snikpic-3" data-name="Snikpic" d="M19.021,1.907a.892.892,0,0,1-.657-.266A.874.874,0,0,1,18.1,1,.874.874,0,0,1,18.364.36a.867.867,0,0,1,.657-.281.85.85,0,0,1,.641.281A.874.874,0,0,1,19.928,1a.874.874,0,0,1-.266.641A.874.874,0,0,1,19.021,1.907Zm-.688,9.24V3.33h1.36v7.817Z" transform="translate(8896.338 -428.487)" fill="#f0998d"/>
    <path id="Snikpic-4" data-name="Snikpic" d="M28.382,11.148H26.693L23.129,7.442v3.705h-1.36V.2h1.36V6.786L26.506,3.33h1.751L24.52,7.114Z" transform="translate(8896.338 -428.487)" fill="#f0998d"/>
    <path id="Snikpic-5" data-name="Snikpic" d="M33.962,3.127a3.739,3.739,0,0,1,2.8,1.2,4.01,4.01,0,0,1,1.157,2.908,4.064,4.064,0,0,1-1.157,2.924,3.763,3.763,0,0,1-2.8,1.188A3.317,3.317,0,0,1,31.007,9.8v4.472h-1.36V3.33h1.36V4.675A3.317,3.317,0,0,1,33.962,3.127Zm-.172,6.911a2.676,2.676,0,0,0,1.97-.8,2.748,2.748,0,0,0,.8-2,2.7,2.7,0,0,0-.8-1.986,2.812,2.812,0,0,0-3.956,0,2.7,2.7,0,0,0-.8,1.986,2.748,2.748,0,0,0,.8,2A2.7,2.7,0,0,0,33.79,10.038Z" transform="translate(8896.338 -428.487)" fill="#f0998d"/>
    <path id="Snikpic-6" data-name="Snikpic" d="M40.229,1.907a.892.892,0,0,1-.657-.266A.874.874,0,0,1,39.306,1,.874.874,0,0,1,39.572.36a.867.867,0,0,1,.657-.281A.85.85,0,0,1,40.87.36.874.874,0,0,1,41.136,1a.874.874,0,0,1-.266.641A.874.874,0,0,1,40.229,1.907Zm-.688,9.24V3.33H40.9v7.817Z" transform="translate(8896.338 -428.487)" fill="#f0998d"/>
    <path id="Snikpic-7" data-name="Snikpic" d="M46.65,11.351a4.008,4.008,0,0,1-4.112-4.112A4.033,4.033,0,0,1,46.65,3.127a3.912,3.912,0,0,1,2.079.563,3.438,3.438,0,0,1,1.376,1.485l-1.141.657a2.3,2.3,0,0,0-.922-1,2.6,2.6,0,0,0-1.391-.375,2.676,2.676,0,0,0-1.97.8A2.723,2.723,0,0,0,43.9,7.239a2.7,2.7,0,0,0,.782,1.97,2.676,2.676,0,0,0,1.97.8,2.772,2.772,0,0,0,1.407-.36,2.513,2.513,0,0,0,.954-1l1.157.672A3.856,3.856,0,0,1,48.73,10.8,4.051,4.051,0,0,1,46.65,11.351Z" transform="translate(8896.338 -428.487)" fill="#f0998d"/>
  </g>
</svg>
